<?xml version="1.0" standalone="no"?>
<!DOCTYPE svg PUBLIC "-//W3C//DTD SVG 20010904//EN"
 "http://www.w3.org/TR/2001/REC-SVG-20010904/DTD/svg10.dtd">
<svg version="1.0" xmlns="http://www.w3.org/2000/svg"
 width="512.000000pt" height="512.000000pt" viewBox="0 0 512.000000 512.000000"
 preserveAspectRatio="xMidYMid meet">

<g transform="translate(0.000000,512.000000) scale(0.100000,-0.100000)"
fill="#000000" stroke="none">
<path d="M2681 5025 c-130 -37 -251 -135 -305 -248 l-25 -54 -60 -6 c-141 -15
-261 -98 -323 -225 -33 -66 -33 -67 -36 -239 l-4 -173 82 0 81 0 -3 159 -3
158 31 49 c18 30 48 60 78 79 44 27 58 30 126 30 68 0 82 -3 126 -30 30 -19
60 -49 79 -79 30 -49 30 -52 33 -208 l4 -158 80 0 80 0 -4 168 c-3 145 -6 173
-25 215 -35 75 -82 134 -140 174 -29 20 -53 38 -53 40 0 17 46 85 77 114 68
65 116 83 218 84 84 0 95 -3 153 -34 108 -59 156 -136 172 -282 17 -148 66
-225 184 -287 l51 -27 323 -3 322 -3 0 80 0 81 -119 0 -119 0 -4 93 c-5 110
-27 167 -88 226 -68 66 -124 81 -303 81 l-152 1 -35 51 c-42 62 -129 129 -208
159 -75 28 -215 35 -291 14z m856 -405 c47 -28 63 -67 63 -150 l0 -72 -107 4
c-94 3 -112 6 -141 26 -43 31 -64 74 -72 150 l-6 62 115 0 c97 0 121 -3 148
-20z"/>
<path d="M925 4466 c-128 -31 -269 -147 -315 -260 l-24 -56 -71 6 c-196 18
-371 -104 -420 -292 -22 -86 -20 -130 10 -159 l24 -25 671 0 671 0 24 25 c24
23 25 28 25 178 0 179 -9 238 -50 325 -36 77 -133 178 -208 216 -106 53 -228
69 -337 42z m265 -187 c68 -36 99 -68 137 -143 23 -45 27 -66 31 -173 l4 -123
-551 0 c-303 0 -551 2 -551 5 0 40 89 126 149 143 89 27 192 -3 247 -72 16
-20 34 -36 39 -36 14 -1 135 64 135 72 0 3 -23 32 -51 62 -59 65 -60 78 -4
163 90 137 268 181 415 102z"/>
<path d="M3600 4000 l0 -80 80 0 80 0 0 80 0 80 -80 0 -80 0 0 -80z"/>
<path d="M3920 4000 l0 -80 280 0 280 0 0 80 0 80 -280 0 -280 0 0 -80z"/>
<path d="M1705 3895 l-25 -24 0 -376 0 -375 -575 0 -576 0 -24 -25 -25 -24 0
-423 c0 -806 -17 -929 -251 -1871 -82 -329 -149 -610 -149 -626 0 -15 9 -37
20 -49 l21 -22 2435 0 2435 0 24 25 c15 14 25 36 25 53 0 16 -50 229 -110 473
-273 1095 -290 1214 -290 2027 l0 413 -25 24 -24 25 -576 0 -575 0 0 240 0
240 55 0 c76 0 99 -23 108 -109 8 -73 54 -168 100 -207 16 -14 53 -37 81 -52
43 -22 64 -26 136 -26 73 0 92 4 137 27 103 53 168 147 180 259 5 46 12 68 29
85 22 22 29 23 199 23 l175 0 0 81 0 81 -198 -4 -199 -3 -49 -30 c-67 -42
-102 -101 -113 -194 -13 -106 -58 -159 -143 -168 -99 -11 -164 50 -179 169
-11 91 -46 151 -112 192 -40 24 -62 30 -127 34 l-80 5 0 54 c0 44 -5 58 -25
78 l-24 25 -831 0 -831 0 -24 -25z m1575 -215 l0 -80 -720 0 -720 0 0 80 0 80
720 0 720 0 0 -80z m3 -692 c5 -490 7 -514 71 -873 40 -224 306 -1843 306
-1863 0 -9 -232 -12 -1100 -12 -873 0 -1100 3 -1100 13 0 6 61 381 135 832
173 1048 212 1290 226 1395 6 47 13 282 16 523 l5 437 718 0 718 0 5 -452z
m-1606 -230 c-9 -299 10 -161 -238 -1660 l-142 -858 -514 0 c-282 0 -513 4
-513 9 0 4 45 190 99 412 225 913 257 1115 268 1677 l6 302 478 0 479 0 0 80
0 80 -480 0 -480 0 0 80 0 80 522 0 521 0 -6 -202z m2803 122 l0 -80 -480 0
-480 0 0 -80 0 -80 479 0 478 0 6 -307 c12 -582 49 -805 313 -1855 29 -120 54
-222 54 -228 0 -7 -167 -10 -513 -10 l-514 0 -151 913 c-231 1388 -220 1305
-229 1605 l-6 202 521 0 522 0 0 -80z"/>
<path d="M2415 2144 c-90 -19 -264 -103 -299 -144 -46 -56 -40 -69 127 -281
l154 -194 -260 -5 -259 -5 -20 -25 c-18 -22 -20 -34 -14 -106 19 -251 170
-479 390 -589 77 -39 105 -43 134 -18 11 10 52 101 92 203 40 102 77 196 82
210 9 22 19 2 92 -184 82 -208 105 -246 146 -246 29 0 108 37 181 85 180 120
299 323 315 538 6 73 4 85 -14 107 l-20 25 -259 5 -260 5 154 194 c202 257
202 261 -2 361 -156 77 -301 97 -460 64z m334 -177 c41 -14 77 -30 82 -34 6
-7 -259 -362 -271 -362 -3 0 -35 39 -71 87 -37 48 -99 128 -138 179 l-72 92
31 16 c116 60 304 69 439 22z m-356 -739 c-30 -73 -67 -163 -81 -200 -15 -38
-32 -68 -39 -68 -18 0 -107 74 -145 122 -55 66 -118 209 -118 265 0 10 44 13
219 13 l219 0 -55 -132z m727 129 c0 -2 -7 -28 -16 -58 -28 -94 -85 -190 -155
-260 -57 -57 -104 -90 -113 -77 -1 1 -28 71 -60 153 -32 83 -67 171 -77 198
l-19 47 220 0 c121 0 220 -1 220 -3z"/>
</g>
</svg>
